# xmcd
#
# Track frame offsets: 
#        150
#        17026
#        35808
#        55296
#        72576
#        91746
#        109694
#        133015
#        151923
#        171755
#        190403
#        210565
#        230108
#        248018
#        264146
#        282987
#
# Disc length: 3983 seconds
#
# Revision: 0
# Processed by: cddbd v1.5.2PL0 Copyright (c) Steve Scherf et al.
# Submitted via: ExactAudioCopy v0.99pb4
#
DISCID=e20f8d10
DTITLE=Various Artist - Music Box - Feeling Blues
DYEAR=1900
DGENRE=
TTITLE0=เพื่อสนิทคิดไม่ซื่อ/ไอซ์ ศรัญยู 
TTITLE1=ผู้ชายห่วย ๆ/มาช่า วัฒนาพานิช 
TTITLE2=1 ปี กับ 1 นาที/เจตริน  วรรธนะสิน
TTITLE3=ขอบใจนะ/แพรว คณิตกุล and ณรงค์วิทย์ 
TTITLE4=แทงข้างหลัง..ทะลุถึงหัวใจ/AOF ปองศักดิ์ 
TTITLE5=วูบหนึ่ง..ในคืนเหงา/โอ๊ค  สมิทธิ์ 
TTITLE6=ไม่มีใครแทนใครได้/เอ็ม  อรรถพล 
TTITLE7=เติมไม่เคยเต็ม/ชินวุฒ 
TTITLE8=ไม่ต้องบอกแล้่วว่าเธอรักฉัน/ก๊อฟ ไมค์ 
TTITLE9=ขอเจ็บแทน/แคลช 
TTITLE10=หมดใจ/เป็ก ผลิตโชค 
TTITLE11=ง่ายง่าย/เป็ก  เปรมณัช 
TTITLE12=ภาพลวงตา/ดา เอ็น'ฟิน 
TTITLE13=ความผิดติดตัว/ZaZa 
TTITLE14=มองเขาเผื่อเอาไว้/O - IC 
TTITLE15=มีค่าเวลาเธอเหงา/ปนัดดา เรืองวุฒิ 
EXTD=
EXTT0=
EXTT1=
EXTT2=
EXTT3=
EXTT4=
EXTT5=
EXTT6=
EXTT7=
EXTT8=
EXTT9=
EXTT10=
EXTT11=
EXTT12=
EXTT13=
EXTT14=
EXTT15=
PLAYORDER=
